inDegrees=yes
name=ik_Xsens_quaternion
DataType=double
version=3
OpenSimVersion=4.4-2022-07-23-0e9fedc
endheader
time	pelvis_tilt	pelvis_list	pelvis_rotation	pelvis_tx	pelvis_ty	pelvis_tz	hip_flexion_r	hip_adduction_r	hip_rotation_r	knee_angle_r	knee_angle_r_beta	ankle_angle_r	subtalar_angle_r	mtp_angle_r	hip_flexion_l	hip_adduction_l	hip_rotation_l	knee_angle_l	knee_angle_l_beta	ankle_angle_l	subtalar_angle_l	mtp_angle_l	lumbar_extension	lumbar_bending	lumbar_rotation	arm_flex_r	arm_add_r	arm_rot_r	elbow_flex_r	pro_sup_r	wrist_flex_r	wrist_dev_r	arm_flex_l	arm_add_l	arm_rot_l	elbow_flex_l	pro_sup_l	wrist_flex_l	wrist_dev_l
38.65	-2036.914083433113	-2766.692071734422	1840.467798668717	0	0.93	0	-11.01665157847907	26.88398815822529	-13.19026079456016	0.008175982851595496	0.0001426978203469363	-4.999999851058176	0	5.234213684758442e-52	45.00000011886162	-9.999999988573334	2.574132577095204e-17	60.00014061962234	1.047200005472001	-4.999999851047471	2.243234436325046e-52	0	0	0	2.228453195417967e-59	-2.392783398746716e-51	-7.93156121181654e-44	9.571133594986865e-50	0	0	0	5.051314885769072e-37	-4.785566797493432e-51	1.316531983563545e-36	0	0	0	-2.772018084750922e-53	1.30492301215701e-36
38.66666666666666	-2053.640645459215	-2748.138557377192	1822.70676098531	0	0.93	0	-6.500383156574685	19.40943783430409	-11.50038572224955	26.43380679438571	0.4613569623980784	-4.999999851055455	0	0	45.00000011886162	-9.999999988573334	2.574132577095204e-17	60.00014061962234	1.047200005472001	-4.999999851047403	0	0	0	0	0	0	-2.694034605743505e-36	0	0	0	0	3.367543257179381e-37	0	0	0	0	0	0	0
38.68333333333333	-2074.848054191621	-2741.514903519902	1810.314291347619	0	0.93	0	4.19722748587316	12.51727392746756	-8.373706356589391	57.87391717281995	1.010090405692196	-4.999999851053128	0	0	45.00000011886163	-9.999999988573334	2.574132577095204e-17	60.00014061962234	1.047200005472001	-4.999999851047358	0	0	0	0	0	0	0	0	0	8.848361808544106e-39	0	0	0	0	0	0	8.848361808544106e-39	0	0
38.7	-2092.553414280783	-2740.964357666816	1805.628871120827	0	0.93	0	16.54679770758671	7.904701990949695	-5.09502527767582	85.39283227124668	1.490386080736522	-4.999999851051775	0	0	45.00000011886163	-9.999999988573334	2.574132577095204e-17	60.00014061962234	1.047200005472001	-4.999999851047317	0	0	0	0	0	0	-1.530850963102541e-37	0	0	0	0	0	0	0	0	0	0	0	0
38.71666666666667	-2109.579126583802	-2741.137094776398	1804.513414301306	0	0.93	0	31.97858416661837	4.010267807475651	-0.7475968027977736	115.9082389435917	2.022980399753989	-4.999999851051009	0	-1.583411229985619e-74	45.00000011886163	-9.999999988573334	2.574132577095204e-17	60.00014061962234	1.047200005472001	-4.999999851047304	0	0	0	0	0	5.066915935953982e-73	1.665761491464521e-37	0	0	1.838577517951722e-39	0	0	-6.485652398021097e-71	4.209429071474227e-37	0	0	1.838577517951722e-39	0	0
38.73333333333333	-2118.355079793764	-2742.378941577536	1805.378727764606	0	0.93	0	39.21411968169753	4.037215927696413	1.472477484971505	119.9946076835876	2.09430098871749	-4.999999851050833	0	-1.143577163290623e-108	45.00000011886163	-9.999999988573334	2.574132577095204e-17	60.00014061962234	1.047200005472001	-4.999999851047302	0	0	0	0	0	0	7.68132733125458e-40	0	1.61967973739848e-39	0	0	0	0	1.941094372836331e-39	0	1.61967973739848e-39	0	0	0
38.75	-2126.50055124629	-2743.557789375712	1805.195271483318	0	0.93	0	45.11535299919924	4.518107561631193	3.194936654720253	119.9974469306437	2.094350542926897	-4.999999851050759	0	0	45.00000011886163	-9.999999988573334	2.574132577095204e-17	60.00014061962234	1.047200005472001	-4.999999851047297	0	0	0	0	0	0	-3.531462246840261e-50	0	0	3.977459243225661e-39	0	0	0	0	0	0	3.977459243225661e-39	0	0
38.76666666666667	-2136.958382073651	-2746.813695422793	1804.107230538096	0	0.93	0	52.50792404348688	4.967634371088648	5.363769994854419	119.9984055114719	2.094367273318495	-4.999999851049178	-1.18184654106332e-40	0	45.00000011886163	-9.999999988573334	2.574132577095204e-17	60.00014061962234	1.047200005472001	-4.999999851049314	0	7.424136057050986e-42	0	-1.735864445800139e-36	0	6.577232924178479e-40	-4.858710366845931e-70	0	0	0	4.425302997572404e-49	0	-2.479308504621966e-40	-3.648951195533002e-38	0	0	8.418858142948453e-38	0	5.36810435794607e-37
38.78333333333333	-2146.498755009907	-2751.678122055258	1802.570032959945	0	0.93	0	59.86451326511018	4.728803161595025	7.674788561873572	119.9987746527166	2.09437371604862	-4.9999998510491	0	0	45.00000011886163	-9.999999988573334	2.574132577095204e-17	60.00014061962234	1.047200005472001	-4.999999851049232	-1.588957725730241e-52	0	0	0	0	0	-4.754271311158574e-38	0	1.688813855493718e-38	2.104511383908985e-38	-2.12288492299368e-68	0	0	1.576741468221678e-36	0	2.39385285669411e-39	0	0	6.274849956112594e-37
38.8	-2153.3365343417	-2754.692423071235	1801.075243401333	0	0.93	0	65.53756800287141	4.716213127011571	9.112756359219642	119.9989417874438	2.094376633099904	-4.999999851049042	0	0	45.00000011886163	-9.999999988573334	2.574132577095204e-17	60.00014061962234	1.047200005472001	-4.999999851049171	0	0	0	0	0	0	0	0	2.504533140290347e-38	0	0	0	0	0	0	2.504533140290347e-38	0	0	8.107065497526371e-72
38.81666666666666	-2158.272227883558	-2756.564557459737	1799.401015629591	0	0.93	0	69.54452500375122	4.457854210870106	9.933836953612882	119.9990149284125	2.094377909650626	-4.999999851048995	0	0	45.00000011886163	-9.999999988573334	2.574132577095204e-17	60.00014061962234	1.047200005472001	-4.999999851049122	0	0	0	0	0	0	1.067128578545536e-36	0	0	2.294350565323152e-40	0	0	0	1.067128578545536e-36	0	0	2.294350565323152e-40	0	2.444152275038875e-89
38.83333333333334	-2161.741824967245	-2757.652310034155	1796.680710865664	0	0.93	0	70.89520813408252	3.320383484138	10.11711245262987	119.9990172489975	2.094377950152475	-4.999999851048952	0	0	45.00000011886163	-9.999999988573334	2.574132577095204e-17	60.00014061962234	1.047200005472001	-4.999999851049076	0	0	0	0	0	0	-9.389108250685461e-55	0	1.052357267868557e-38	0	0	0	0	-9.389108250685461e-55	0	1.052357267868557e-38	0	0	0
38.85	-2164.144527334633	-2758.731274228456	1793.535720192212	0	0.93	0	70.32197227790249	1.776048653736418	10.24319627690292	119.99901397629	2.094377893032954	-4.999999851048911	0	0	45.00000011886163	-9.999999988573334	2.574132577095204e-17	60.00014061962234	1.047200005472001	-4.999999851049034	0	0	0	0	0	0	4.041051908615258e-36	0	0	0	0	0	0	4.041051908615258e-36	0	0	0	0	0
